<svg xmlns="http://www.w3.org/2000/svg" width="72.921" height="163" viewBox="0 0 72.921 163">
    <g id="KiosqLogo" transform="translate(-51.5 -184)">
        <g id="Inside" transform="translate(51.5 184)">
            <path id="Path_3" d="M172.868,192.579v51.474L160,235.474V184l12.868,8.579" transform="translate(-99.947 -184)" fill="#809eff"/>
            <path id="Path_4" d="M69.447,320v17.158L48,350.026l12.868,8.579,21.447-12.868V328.579Z" transform="translate(-48 -247.079)" fill="#809eff"/>
        </g>
        <path id="Backside" d="M108.053,184,48,214.026v72.921l21.447-12.868V256.921l38.605-21.447V184" transform="translate(3.5)" fill="#ffd300"/>
        <path id="Outside" d="M48,214.026,108.053,184l12.868,8.579L60.868,222.605v72.921l21.447-12.868V265.5l-12.868-8.579,38.605-21.447,12.868,8.579v72.921L60.868,347,48,338.421V214.026" transform="translate(3.5)" fill="#387ef5"/>
    </g>
</svg>
