<svg id="_x33_0" enable-background="new 0 0 64 64" height="512" viewBox="0 0 64 64" width="512" xmlns="http://www.w3.org/2000/svg"><g><g><g><circle cx="51" cy="51" fill="#e6e9ed" r="11"/></g><g><path d="m50.72 54c3.31 0 6.28 1.96 7.61 4.94-1.97 1.9-4.65 3.06-7.61 3.06s-5.63-1.16-7.61-3.06c.67-1.49 1.74-2.72 3.06-3.59 1.33-.86 2.89-1.35 4.55-1.35z" fill="#b4dd7f"/></g><g><circle cx="50.72" cy="49" fill="#f0d0b4" r="5"/></g><g><path d="m34 19.84c0 1.76-.24 3.52-.71 5.22-.55-.65-1.37-1.06-2.29-1.06h-1v-2c0-1.1-.9-2-2-2h-7c-1.38 0-2.63-.56-3.54-1.46-.17-.17-.32-.35-.46-.54-.63-.83-1-1.87-1-3s.37-2.17 1-3c.91-1.21 2.37-2 4-2h3.16c2.72 0 5.18 1.1 6.96 2.88s2.88 4.24 2.88 6.96z" fill="#656d78"/></g><g><path d="m11 24c-.92 0-1.74.41-2.29 1.06-.47-1.7-.71-3.46-.71-5.22 0-2.16.88-4.12 2.3-5.54s3.38-2.3 5.54-2.3h1.16c-.63.83-1 1.87-1 3s.37 2.17 1 3h-1c-2.21 0-4 1.79-4 4v2z" fill="#656d78"/></g><g><path d="m32 62h-22-8l.34-5.71c.38-6.58 5.32-12.01 11.84-13.01l.39-.06c.85-.13 1.53-.8 1.67-1.65l.61-3.68c.37.07.76.11 1.15.11h6c.39 0 .78-.04 1.15-.11l.61 3.68c.14.85.82 1.52 1.67 1.65l.39.06c6.52 1 11.46 6.43 11.84 13.01l.34 5.71z" fill="#f0d0b4"/></g><g><path d="m33.29 25.06c.44.52.71 1.2.71 1.94 0 .83-.34 1.58-.88 2.12s-1.29.88-2.12.88h-1v-6h1c.92 0 1.74.41 2.29 1.06z" fill="#f0d0b4"/></g><g><path d="m21 20h7c1.1 0 2 .9 2 2v2 6 2c0 2.92-2.09 5.35-4.85 5.89-.37.07-.76.11-1.15.11h-6c-.39 0-.78-.04-1.15-.11-2.76-.54-4.85-2.97-4.85-5.89v-2-6-2c0-2.21 1.79-4 4-4h1c.14.19.29.37.46.54.91.9 2.16 1.46 3.54 1.46z" fill="#f0d0b4"/></g><g><path d="m12 24v6h-1c-.83 0-1.58-.34-2.12-.88s-.88-1.29-.88-2.12c0-.74.27-1.42.71-1.94.55-.65 1.37-1.06 2.29-1.06z" fill="#f0d0b4"/></g><g><path d="m58 2h4v16h-4z" fill="#ffeaa7"/></g><g><path d="m50 6h4v12h-4z" fill="#ffeaa7"/></g><g><path d="m42 10h4v8h-4z" fill="#ffeaa7"/></g></g><g><path d="m26 31h-2c0 1.103-.897 2-2 2h-5v2h5c2.206 0 4-1.794 4-4z"/><circle cx="16" cy="24" r="1"/><circle cx="25" cy="24" r="1"/><path d="m20 25h2v4h-2z"/><path d="m5 9h6v-2h-8v8h2z"/><path d="m37 15h2v-8h-8v2h6z"/><path d="m11 39h-6v-6h-2v8h8z"/><path d="m37 39h-6v2h8v-8h-2z"/><path d="m57 1v16h-2v-12h-6v12h-2v-8h-6v10h22v-18zm-12 16h-2v-6h2zm6-10h2v10h-2zm10 10h-2v-14h2z"/><path d="m41 21h8v2h-8z"/><path d="m51 21h8v2h-8z"/><path d="m41 25h22v2h-22z"/><path d="m41 29h18v2h-18z"/><path d="m41 33h2v2h-2z"/><path d="m45 33h2v2h-2z"/><path d="m49 33h2v2h-2z"/><path d="m50.721 39c-6.228 0-11.359 4.769-11.942 10.847-2.208-3.946-6.142-6.837-10.809-7.555l-.387-.06c-.428-.066-.764-.397-.835-.824l-.466-2.798c2.741-.949 4.718-3.55 4.718-6.61v-1c2.206 0 4-1.794 4-4 0-.79-.238-1.523-.635-2.145.415-1.64.635-3.324.635-5.017 0-5.976-4.862-10.838-10.838-10.838h-3.162c-1.771 0-3.36.776-4.46 2h-.703c-4.872 0-8.837 3.965-8.837 8.838 0 1.693.22 3.377.635 5.017-.397.622-.635 1.355-.635 2.145 0 2.206 1.794 4 4 4v1c0 3.06 1.977 5.661 4.718 6.61l-.466 2.797c-.071.427-.407.759-.835.825l-.387.06c-6.941 1.067-12.28 6.932-12.692 13.944l-.399 6.764h40.121l-.315-5.34c2.155 3.216 5.82 5.34 9.975 5.34 6.617 0 12-5.383 12-12s-5.382-12-11.999-12zm-19.721-10v-4c1.103 0 2 .897 2 2s-.897 2-2 2zm-10-18h3.162c4.873 0 8.838 3.965 8.838 8.838 0 1.186-.12 2.368-.346 3.53-.506-.231-1.063-.368-1.654-.368v-1c0-1.654-1.346-3-3-3h-7c-2.206 0-4-1.794-4-4s1.794-4 4-4zm-12 16c0-1.103.897-2 2-2v4c-1.103 0-2-.897-2-2zm2-5v1c-.591 0-1.148.137-1.653.368-.227-1.162-.347-2.344-.347-3.53 0-3.603 2.802-6.556 6.341-6.813-.217.62-.341 1.282-.341 1.975 0 .716.126 1.404.357 2.041-2.454.316-4.357 2.42-4.357 4.959zm2 10v-10c0-1.654 1.346-3 3-3h.531c1.1 1.227 2.695 2 4.469 2h7c.552 0 1 .449 1 1v10c0 2.757-2.243 5-5 5h-6c-2.757 0-5-2.243-5-5zm20 29v-8h-2v8h-20v-8h-2v8h-5.939l.273-4.646c.357-6.077 4.984-11.16 11.001-12.085l.387-.06c1.282-.197 2.289-1.19 2.503-2.472l.458-2.752c.106.004.21.015.317.015h6c.107 0 .211-.011.317-.016l.458 2.753c.214 1.281 1.221 2.274 2.503 2.471l.387.06c6.017.925 10.644 6.008 11.001 12.085l.273 4.647zm11.366-2.285c1.29-2.272 3.704-3.715 6.355-3.715 2.652 0 5.065 1.443 6.354 3.716-1.729 1.426-3.943 2.284-6.354 2.284s-4.626-.858-6.355-2.285zm2.355-9.715c0-2.206 1.794-4 4-4s4 1.794 4 4-1.794 4-4 4-4-1.794-4-4zm11.804 8.236c-1.018-1.561-2.476-2.759-4.164-3.477 1.431-1.098 2.36-2.82 2.36-4.758 0-3.309-2.691-6-6-6s-6 2.691-6 6c0 1.939.928 3.661 2.36 4.759-1.688.718-3.146 1.916-4.165 3.477-1.37-1.711-2.195-3.877-2.195-6.235 0-5.514 4.486-10 10-10s10 4.486 10 10c0 2.356-.825 4.522-2.196 6.234z"/></g></g></svg>