<svg id="_x31_px" enable-background="new 0 0 36 36" height="512" viewBox="0 0 36 36" width="512" xmlns="http://www.w3.org/2000/svg"><path d="m4.167 27.623c0-6.917-3.583-11.667-3.583-15s1.916-10.333 17.249-10.333 17.583 9.417 17.583 13.083c.001 17.167-31.249 24.5-31.249 12.25z" fill="#efefef"/><g fill="#a4afc1"><path d="m28.467 1.967h1v2h-1z" transform="matrix(.707 -.707 .707 .707 6.386 21.352)"/><path d="m32.533 6.033h1v2h-1z" transform="matrix(.707 -.707 .707 .707 4.702 25.418)"/><path d="m31.857 2.467h2v1h-2z" transform="matrix(.707 -.707 .707 .707 7.526 24.102)"/></g><path d="m7.5 23.5h17v-15c0-1.105-.895-2-2-2h-6-7c-1.105 0-2 .895-2 2z" fill="#f3f3f1"/><path d="m18.5 25.5h6v-4h-15c-1.105 0-2 .895-2 2 0 1.105.895 2 2 2h4z" fill="#2fdf84"/><path d="m13.5 23.5v6l2.5-2 2.5 2v-6z" fill="#f3f3f1"/><path d="m11.5 6.5h-2c-1.105 0-2 .895-2 2v15h2v-15c0-1.105.895-2 2-2z" fill="#d5dbe1"/><path d="m9.5 23.5c0-1.105.895-2 2-2h-2c-1.105 0-2 .895-2 2s.895 2 2 2h2c-1.105 0-2-.895-2-2z" fill="#00b871"/><path d="m15.5 23.5h-2v6l2-1.6z" fill="#d5dbe1"/><path d="m18.5 13c-.276 0-.5-.224-.5-.5v-6c0-.276.224-.5.5-.5s.5.224.5.5v6c0 .276-.224.5-.5.5z"/><path d="m23.5 13h-3c-.276 0-.5-.224-.5-.5v-1c0-1.379 1.121-2.5 2.5-2.5.275 0 .5-.225.5-.5v-1c0-.275-.225-.5-.5-.5h-2c-.276 0-.5-.224-.5-.5s.224-.5.5-.5h2c.827 0 1.5.673 1.5 1.5v1c0 .827-.673 1.5-1.5 1.5s-1.5.673-1.5 1.5v.5h2.5c.276 0 .5.224.5.5s-.224.5-.5.5z"/><path d="m27.5 13h-2c-.276 0-.5-.224-.5-.5s.224-.5.5-.5h2c.275 0 .5-.225.5-.5v-1c0-.275-.225-.5-.5-.5h-2c-.276 0-.5-.224-.5-.5s.224-.5.5-.5h2c.827 0 1.5.673 1.5 1.5v1c0 .827-.673 1.5-1.5 1.5z"/><path d="m27.5 10h-2c-.276 0-.5-.224-.5-.5s.224-.5.5-.5h2c.275 0 .5-.225.5-.5v-1c0-.275-.225-.5-.5-.5h-2c-.276 0-.5-.224-.5-.5s.224-.5.5-.5h2c.827 0 1.5.673 1.5 1.5v1c0 .827-.673 1.5-1.5 1.5z"/><path d="m7.5 24c-.276 0-.5-.224-.5-.5v-15c0-1.379 1.121-2.5 2.5-2.5h6c.276 0 .5.224.5.5s-.224.5-.5.5h-6c-.827 0-1.5.673-1.5 1.5v15c0 .276-.224.5-.5.5z"/><path d="m13.5 26h-4c-1.379 0-2.5-1.121-2.5-2.5s1.121-2.5 2.5-2.5h14.5v-5.5c0-.276.224-.5.5-.5s.5.224.5.5v6c0 .276-.224.5-.5.5h-15c-.827 0-1.5.673-1.5 1.5s.673 1.5 1.5 1.5h4c.276 0 .5.224.5.5s-.224.5-.5.5z"/><path d="m24.5 26h-6c-.276 0-.5-.224-.5-.5s.224-.5.5-.5h5.5v-3.5c0-.276.224-.5.5-.5s.5.224.5.5v4c0 .276-.224.5-.5.5z"/><path d="m18.5 30c-.111 0-.222-.037-.313-.109l-2.187-1.75-2.188 1.75c-.15.119-.354.143-.529.06-.173-.084-.283-.259-.283-.451v-6c0-.276.224-.5.5-.5s.5.224.5.5v4.96l1.688-1.351c.184-.146.441-.146.625 0l1.687 1.351v-4.96c0-.276.224-.5.5-.5s.5.224.5.5v6c0 .192-.11.367-.283.45-.07.033-.144.05-.217.05z"/><path d="m20.5 24h-9c-.276 0-.5-.224-.5-.5s.224-.5.5-.5h9c.276 0 .5.224.5.5s-.224.5-.5.5z"/></svg>